<svg width="148" height="24" viewBox="0 0 148 24" fill="none" xmlns="http://www.w3.org/2000/svg">
<path d="M0 1.66433C0 1.55793 0.0826465 1.47624 0.247939 1.41924C0.413232 1.36224 0.521309 1.33374 0.572168 1.33374L1.04262 1.26535C1.35625 1.21975 1.67412 1.17985 1.99623 1.14565C2.31834 1.11145 2.63197 1.07915 2.93713 1.04876C4.01365 0.927161 5.09018 0.807466 6.1667 0.689671C7.24322 0.571876 8.32822 0.512978 9.4217 0.512978C9.50646 0.512978 9.62302 0.516778 9.77136 0.524378C9.9197 0.531977 10.068 0.552876 10.2164 0.587075C10.3647 0.621274 10.4919 0.668772 10.5978 0.729569C10.7038 0.790366 10.7568 0.873963 10.7568 0.980358C10.7568 1.05635 10.7165 1.12285 10.636 1.17985C10.5554 1.23685 10.4601 1.28055 10.3499 1.31094C10.2397 1.34134 10.1274 1.36034 10.0129 1.36794C9.89851 1.37554 9.80738 1.37934 9.73957 1.37934H9.51706C9.51706 1.37934 9.44289 1.36414 9.29455 1.33374C8.84529 1.33374 8.40239 1.35274 7.96585 1.39074C7.52931 1.42874 7.08641 1.46294 6.63715 1.49334C6.75582 1.61493 6.81939 1.78592 6.82787 2.00631C6.83635 2.22671 6.84482 2.4167 6.8533 2.57629C6.8533 5.26658 6.87449 7.94166 6.91688 10.6015C6.95926 13.2614 6.9974 15.9479 7.03131 18.661V18.6838C6.75158 18.9042 6.51212 19.0448 6.31292 19.1056C6.11372 19.1664 5.9124 19.1968 5.70897 19.1968C5.514 19.1968 5.31692 19.1645 5.11772 19.0999C4.91853 19.0353 4.67906 18.8966 4.39934 18.6838V18.661L4.50105 9.71239C4.50105 9.11961 4.49258 8.46604 4.47563 7.75167C4.45867 7.0373 4.4502 6.31343 4.4502 5.58006C4.4502 4.84669 4.46291 4.13802 4.48834 3.45405C4.51377 2.77008 4.58158 2.17351 4.69178 1.66433C4.19166 1.70993 3.66188 1.77832 3.10242 1.86952C2.61926 1.94552 2.15729 1.98352 1.7165 1.98352H1.48764C1.45373 1.98352 1.35413 1.98732 1.18884 1.99492C1.02354 2.00251 0.854014 1.99871 0.680244 1.98352C0.506475 1.96832 0.349658 1.93792 0.209795 1.89232C0.0699316 1.84672 0 1.77072 0 1.66433ZM12.5708 14.8764V13.8048C12.5708 13.4172 12.5814 12.8682 12.6026 12.1576C12.6238 11.447 12.6513 10.668 12.6852 9.82068C12.7191 8.97332 12.7657 8.08986 12.8251 7.17029C12.8844 6.25073 12.9522 5.38247 13.0285 4.56551C13.1048 3.74854 13.1959 3.01707 13.3019 2.3711C13.4078 1.72513 13.5286 1.24635 13.6643 0.93476C13.749 0.759968 13.8889 0.649772 14.0839 0.604174C14.2788 0.558576 14.4695 0.535777 14.656 0.535777C14.9527 0.535777 15.2134 0.594675 15.438 0.71247C15.6626 0.830265 15.7749 1.04496 15.7749 1.35654L15.5461 1.58453C15.2494 3.34006 15.0587 5.10318 14.9739 6.87391C14.8891 8.64463 14.8298 10.4154 14.7959 12.1861C15.0078 11.8897 15.2473 11.599 15.5143 11.314C15.7813 11.029 16.078 10.7763 16.4043 10.556C16.7307 10.3356 17.0824 10.1589 17.4596 10.0259C17.8368 9.89288 18.2501 9.82638 18.6993 9.82638C19.2757 9.82638 19.7526 9.98217 20.1298 10.2938C20.507 10.6053 20.8185 11.01 21.0643 11.5078C21.3101 12.0056 21.4924 12.5623 21.611 13.1778C21.7297 13.7934 21.8208 14.409 21.8844 15.0246C21.948 15.6401 21.9925 16.2234 22.0179 16.7744C22.0433 17.3254 22.0815 17.7832 22.1323 18.148C21.9713 18.3456 21.734 18.4444 21.4203 18.4444H21.3822C21.2465 18.4444 21.0982 18.4292 20.9372 18.3988C20.7761 18.3684 20.6701 18.2924 20.6193 18.1708L20.6447 18.1936C20.526 17.958 20.4455 17.618 20.4031 17.1734C20.3607 16.7288 20.3268 16.2386 20.3014 15.7028C20.276 15.1671 20.2315 14.618 20.1679 14.0556C20.1043 13.4932 20.009 12.984 19.8818 12.5281C19.7547 12.0721 19.5682 11.6959 19.3224 11.3995C19.0765 11.1031 18.746 10.9473 18.3306 10.9321H18.2543C17.7542 10.9321 17.3346 11.0689 16.9956 11.3425C16.6395 11.6313 16.3513 12.0113 16.1309 12.4825C15.9106 12.9536 15.741 13.478 15.6223 14.0556C15.5037 14.6332 15.4126 15.1899 15.349 15.7256C15.2854 16.2614 15.2367 16.7478 15.2028 17.1848C15.1689 17.6217 15.1265 17.9428 15.0756 18.148C15.0247 18.3228 14.8743 18.4387 14.6242 18.4957C14.3742 18.5527 14.1601 18.5812 13.9821 18.5812C13.5668 18.5812 13.2277 18.4748 12.9649 18.262C12.77 17.844 12.6556 17.3235 12.6216 16.7003C12.5877 16.0771 12.5708 15.4691 12.5708 14.8764ZM24.7347 14.1012C24.7347 13.5692 24.8004 12.9422 24.9318 12.2203C25.0632 11.4983 25.2857 10.8143 25.5993 10.1684C25.9129 9.5224 26.3262 8.97332 26.839 8.52114C27.3518 8.06896 27.9982 7.84287 28.778 7.84287C29.507 7.84287 30.0537 8.03096 30.4182 8.40714C30.7827 8.78333 30.965 9.2906 30.965 9.92898C30.965 10.347 30.8781 10.8048 30.7043 11.3026C30.5305 11.8004 30.2826 12.2716 29.9605 12.7162C29.6384 13.1607 29.2569 13.5312 28.8162 13.8276C28.3754 14.124 27.8837 14.2722 27.3412 14.2722L27.0107 14.2494C27.0107 14.4546 27.0446 14.7301 27.1124 15.0759C27.1802 15.4216 27.2798 15.7655 27.4112 16.1075C27.5426 16.4495 27.7121 16.7497 27.9198 17.0081C28.1274 17.2665 28.3796 17.3957 28.6763 17.3957C29.1086 17.3957 29.524 17.2399 29.9224 16.9283C30.3207 16.6167 30.698 16.2709 31.054 15.8909C31.41 15.5109 31.7406 15.1652 32.0457 14.8536C32.3509 14.542 32.6306 14.3862 32.8849 14.3862C33.0205 14.3862 33.1604 14.4052 33.3045 14.4432C33.4486 14.4812 33.5291 14.5876 33.5461 14.7624C33.5461 14.8688 33.5143 14.9562 33.4507 15.0246C33.3871 15.093 33.3299 15.169 33.2791 15.2526C33.0163 15.6553 32.7302 16.0391 32.4208 16.4039C32.1114 16.7687 31.7618 17.0993 31.3718 17.3957C30.9819 17.692 30.556 17.9257 30.094 18.0967C29.632 18.2677 29.1213 18.3532 28.5619 18.3532C27.8329 18.3532 27.2268 18.2373 26.7436 18.0055C26.2605 17.7737 25.8706 17.4622 25.5739 17.0708C25.2772 16.6794 25.0632 16.2272 24.9318 15.7142C24.8004 15.2013 24.7347 14.6636 24.7347 14.1012ZM27.0107 13.2348L27.3667 13.5198C27.5362 13.6566 27.7057 13.687 27.8753 13.611C28.0448 13.535 28.1974 13.3963 28.333 13.1949C28.4686 12.9935 28.5937 12.7447 28.7081 12.4483C28.8225 12.1519 28.9242 11.8479 29.0132 11.5363C29.1022 11.2247 29.1679 10.9207 29.2103 10.6243C29.2527 10.328 29.2739 10.081 29.2739 9.88338V9.4958C29.2739 9.4958 29.2612 9.359 29.2358 9.08541C29.2103 8.81182 29.1658 8.70353 29.1022 8.76053C29.0387 8.81752 28.9391 8.76243 28.8034 8.59523C28.7611 8.58763 28.7229 8.58383 28.689 8.58383C28.4008 8.58383 28.155 8.74723 27.9515 9.07401C27.7312 9.4388 27.5532 9.88148 27.4175 10.4021C27.2819 10.9226 27.1844 11.4565 27.1251 12.0037C27.0658 12.5509 27.0276 12.9612 27.0107 13.2348ZM40.3147 14.8308C40.3147 14.4888 40.3338 14.0803 40.3719 13.6053C40.4101 13.1303 40.4969 12.7371 40.6326 12.4255C40.6834 12.3191 40.7915 12.2146 40.9568 12.112C41.1221 12.0094 41.2959 11.9467 41.4781 11.9239C41.6604 11.9011 41.8214 11.9201 41.9613 11.9809C42.1011 12.0417 42.1711 12.1747 42.1711 12.3799C42.1711 12.7371 42.1626 13.1892 42.1456 13.7364V14.0898C42.1456 14.5078 42.1668 14.9068 42.2092 15.2867C42.2686 15.7883 42.3957 16.2101 42.5907 16.5521C42.7602 16.8637 43.0272 17.0195 43.3917 17.0195H43.4934C43.9935 16.9891 44.3623 16.8029 44.5996 16.4609C44.8369 16.1189 44.998 15.7123 45.0828 15.2412C45.1591 14.808 45.1972 14.352 45.1972 13.8732V13.7364C45.1887 13.2044 45.1845 12.7371 45.1845 12.3343C45.1845 10.7307 45.1252 9.12341 45.0065 7.51228C44.8878 5.90115 44.8285 4.28622 44.8285 2.66749C44.8285 2.4015 44.8158 2.11271 44.7903 1.80112C44.7818 1.68713 44.7776 1.57313 44.7776 1.45914C44.7776 1.27675 44.7903 1.10195 44.8158 0.93476C44.8581 0.668772 44.9662 0.446481 45.14 0.267889C45.3138 0.0892962 45.6083 0 46.0237 0C46.2525 0 46.4623 0.024699 46.6531 0.0740968C46.8438 0.123495 47.0154 0.22419 47.168 0.376184C47.363 2.3521 47.524 4.36031 47.6512 6.40083C47.7783 8.44134 47.8419 10.4572 47.8419 12.4483C47.8419 13.1322 47.7783 13.82 47.6512 14.5116C47.524 15.2032 47.2909 15.8263 46.9519 16.3811C46.6128 16.9359 46.1423 17.3881 45.5405 17.7376C44.9387 18.0872 44.1715 18.262 43.2391 18.262C42.6797 18.262 42.2135 18.1727 41.8405 17.9941C41.4675 17.8155 41.1687 17.5705 40.9441 17.2589C40.7195 16.9473 40.5584 16.5844 40.4609 16.1702C40.3634 15.756 40.3147 15.3095 40.3147 14.8308ZM50.1899 13.8504C50.1899 13.4172 50.2514 12.9707 50.3743 12.511C50.4972 12.0512 50.6922 11.637 50.9592 11.2684C51.2262 10.8998 51.5631 10.5996 51.97 10.3679C52.3769 10.1361 52.8685 10.0202 53.4449 10.0202C53.8772 10.0202 54.3329 10.0867 54.8118 10.2197C55.2907 10.3527 55.7294 10.5427 56.1278 10.7896C56.5262 11.0366 56.8504 11.3387 57.1005 11.6959C57.3505 12.0531 57.4755 12.4521 57.4755 12.8929C57.4755 13.4248 57.3675 13.9302 57.1513 14.409C56.9352 14.8878 56.6321 15.3152 56.2422 15.6914C55.8523 16.0676 55.3967 16.364 54.8754 16.5806C54.354 16.7972 53.7882 16.9055 53.1779 16.9055C52.6778 16.9055 52.2413 16.8238 51.8683 16.6604C51.4953 16.497 51.1838 16.2785 50.9338 16.0049C50.6837 15.7313 50.4972 15.4083 50.3743 15.036C50.2514 14.6636 50.1899 14.2684 50.1899 13.8504ZM52.059 13.8276C52.059 13.9644 52.0823 14.1658 52.129 14.4318C52.1756 14.6978 52.2455 14.9581 52.3387 15.2127C52.432 15.4672 52.5528 15.6876 52.7011 15.8738C52.8495 16.06 53.0296 16.1455 53.2415 16.1303C53.6908 16.0847 54.0616 15.9536 54.354 15.737C54.6465 15.5204 54.8838 15.2564 55.0661 14.9448C55.2483 14.6332 55.3755 14.295 55.4475 13.9302C55.5196 13.5654 55.5556 13.2196 55.5556 12.8929C55.5556 12.4749 55.4645 12.1253 55.2822 11.8441C55.1 11.5629 54.8012 11.3349 54.3858 11.1601C54.3858 11.1753 54.3943 11.1829 54.4113 11.1829C54.4282 11.1829 54.4367 11.1753 54.4367 11.1601L54.1188 11.0917C54.0341 11.0613 53.9302 11.0271 53.8073 10.9891C53.6844 10.9511 53.5636 10.8675 53.4449 10.7383C53.1144 10.8447 52.8579 10.9815 52.6757 11.1487C52.4934 11.3159 52.3557 11.5192 52.2625 11.7586C52.1692 11.998 52.112 12.2849 52.0908 12.6193C52.0696 12.9536 52.059 13.3564 52.059 13.8276ZM59.8236 11.0917C59.8236 10.8713 59.8935 10.7269 60.0334 10.6585C60.1733 10.5901 60.3491 10.556 60.5611 10.556C60.9086 10.556 61.1735 10.6148 61.3557 10.7326C61.538 10.8504 61.6291 11.0575 61.6291 11.3539C61.6291 11.7111 61.6588 12.1576 61.7181 12.6934C61.7774 13.2291 61.8643 13.7497 61.9788 14.2551C62.0932 14.7605 62.2288 15.1956 62.3856 15.5603C62.5425 15.9251 62.7056 16.1075 62.8752 16.1075C63.1888 16.1075 63.4664 15.8909 63.708 15.4577C63.9496 15.0246 64.1615 14.4926 64.3437 13.8618C64.526 13.231 64.6828 12.5528 64.8142 11.827C64.9456 11.1012 65.0367 10.4534 65.0875 9.88338C65.1215 9.57179 65.2041 9.3457 65.3355 9.20511C65.4669 9.06451 65.7063 8.99422 66.0539 8.99422C66.4523 8.99422 66.7426 9.14241 66.9248 9.4388C67.1071 9.73519 67.2236 10.1 67.2745 10.5332C67.3169 10.9055 67.3381 11.2931 67.3381 11.6959V11.8897V12.3457C67.3381 12.6345 67.3423 12.8929 67.3508 13.1208L67.7195 20.1087L67.7704 21.2715C67.7873 21.3779 67.8 21.4786 67.8085 21.5736C67.817 21.6686 67.8212 21.7693 67.8212 21.8757C67.8212 22.3089 67.7174 22.5881 67.5097 22.7135C67.302 22.8389 66.9651 22.9016 66.4989 22.9016C66.3972 22.9016 66.2679 22.894 66.1111 22.8788C65.9543 22.8636 65.8017 22.8332 65.6534 22.7876C65.505 22.742 65.3779 22.6793 65.2719 22.5995C65.166 22.5197 65.113 22.419 65.113 22.2975L65.1638 22.1835C65.2062 21.7275 65.2274 21.2487 65.2274 20.7471V20.5077C65.2189 19.915 65.1977 19.3146 65.1638 18.7066C65.1299 18.0986 65.0918 17.4907 65.0494 16.8827C65.007 16.2747 64.9858 15.6895 64.9858 15.1272C64.8672 15.3627 64.7294 15.6059 64.5726 15.8567C64.4158 16.1075 64.2335 16.3336 64.0259 16.535C63.8182 16.7364 63.583 16.9036 63.3202 17.0366C63.0574 17.1696 62.7607 17.2361 62.4301 17.2361C61.947 17.2361 61.5486 17.1221 61.2349 16.8941C60.9213 16.6661 60.6776 16.3697 60.5038 16.0049C60.3301 15.6401 60.205 15.2317 60.1288 14.7795C60.0525 14.3273 60.0016 13.8751 59.9762 13.4229C59.9507 12.9707 59.9338 12.5395 59.9253 12.1291C59.9168 11.7187 59.8829 11.3729 59.8236 11.0917ZM70.1693 13.8504C70.1693 13.4172 70.2307 12.9707 70.3537 12.511C70.4766 12.0512 70.6715 11.637 70.9385 11.2684C71.2055 10.8998 71.5425 10.5996 71.9494 10.3679C72.3562 10.1361 72.8479 10.0202 73.4243 10.0202C73.8566 10.0202 74.3122 10.0867 74.7911 10.2197C75.2701 10.3527 75.7087 10.5427 76.1071 10.7896C76.5055 11.0366 76.8297 11.3387 77.0798 11.6959C77.3299 12.0531 77.4549 12.4521 77.4549 12.8929C77.4549 13.4248 77.3468 13.9302 77.1307 14.409C76.9145 14.8878 76.6115 15.3152 76.2215 15.6914C75.8316 16.0676 75.376 16.364 74.8547 16.5806C74.3334 16.7972 73.7676 16.9055 73.1573 16.9055C72.6572 16.9055 72.2206 16.8238 71.8476 16.6604C71.4747 16.497 71.1632 16.2785 70.9131 16.0049C70.663 15.7313 70.4766 15.4083 70.3537 15.036C70.2307 14.6636 70.1693 14.2684 70.1693 13.8504ZM72.0384 13.8276C72.0384 13.9644 72.0617 14.1658 72.1083 14.4318C72.1549 14.6978 72.2249 14.9581 72.3181 15.2127C72.4113 15.4672 72.5321 15.6876 72.6805 15.8738C72.8288 16.06 73.0089 16.1455 73.2208 16.1303C73.6701 16.0847 74.041 15.9536 74.3334 15.737C74.6258 15.5204 74.8632 15.2564 75.0454 14.9448C75.2277 14.6332 75.3548 14.295 75.4269 13.9302C75.4989 13.5654 75.535 13.2196 75.535 12.8929C75.535 12.4749 75.4438 12.1253 75.2616 11.8441C75.0793 11.5629 74.7805 11.3349 74.3652 11.1601C74.3652 11.1753 74.3737 11.1829 74.3906 11.1829C74.4076 11.1829 74.416 11.1753 74.416 11.1601L74.0982 11.0917C74.0134 11.0613 73.9096 11.0271 73.7867 10.9891C73.6637 10.9511 73.543 10.8675 73.4243 10.7383C73.0937 10.8447 72.8373 10.9815 72.655 11.1487C72.4728 11.3159 72.335 11.5192 72.2418 11.7586C72.1486 11.998 72.0913 12.2849 72.0702 12.6193C72.049 12.9536 72.0384 13.3564 72.0384 13.8276ZM79.2816 12.6307C79.2816 12.4787 79.3007 12.2773 79.3388 12.0265C79.377 11.7757 79.4215 11.5268 79.4724 11.2798C79.5232 11.0328 79.5826 10.8029 79.6504 10.5901C79.7182 10.3774 79.7987 10.2406 79.8919 10.1798C79.9598 10.119 80.0763 10.0582 80.2416 9.99737C80.4069 9.93658 80.5807 9.89288 80.7629 9.86628C80.9452 9.83968 81.1147 9.85108 81.2715 9.90048C81.4283 9.94988 81.5237 10.0506 81.5576 10.2026C81.4389 10.3394 81.3308 10.5731 81.2334 10.9036C81.1359 11.2342 81.0617 11.6009 81.0108 12.0037C80.9685 12.3457 80.9473 12.6991 80.9473 13.0638V13.2576C80.9557 13.6832 80.9981 14.0746 81.0744 14.4318C81.1507 14.789 81.2673 15.0835 81.4241 15.3152C81.5809 15.547 81.7992 15.6629 82.0789 15.6629C82.6723 15.6629 83.2148 15.4178 83.7064 14.9277C84.198 14.4375 84.6346 13.839 85.016 13.1322C85.3975 12.4255 85.7323 11.675 86.0205 10.8808C86.3087 10.0867 86.5545 9.3932 86.758 8.80043C86.8088 8.62563 86.9296 8.50784 87.1203 8.44704C87.3111 8.38624 87.5166 8.36534 87.737 8.38434C87.9574 8.40334 88.1545 8.45084 88.3282 8.52684C88.502 8.60283 88.6059 8.69403 88.6398 8.80043C88.4702 10.0772 88.3367 11.3539 88.2392 12.6307C88.1418 13.9074 88.093 15.1918 88.093 16.4837C88.093 16.7345 88.1057 16.9644 88.1312 17.1734C88.1566 17.3824 88.1439 17.561 88.093 17.7091C88.0422 17.8573 87.9298 17.9751 87.7561 18.0625C87.5823 18.1499 87.3047 18.1936 86.9232 18.1936C86.8385 18.1936 86.7304 18.186 86.599 18.1708C86.4676 18.1556 86.332 18.1309 86.1921 18.0967C86.0523 18.0625 85.9336 18.0112 85.8361 17.9428C85.7387 17.8744 85.6899 17.7946 85.6899 17.7034C85.6899 17.1411 85.7132 16.5635 85.7598 15.9707C85.8065 15.3779 85.8722 14.8042 85.9569 14.2494C85.7281 14.5458 85.4759 14.8403 85.2004 15.1329C84.9249 15.4254 84.6219 15.6895 84.2913 15.9251C83.9607 16.1607 83.6047 16.3488 83.2232 16.4894C82.8418 16.63 82.4307 16.7003 81.9899 16.7003C81.3626 16.7003 80.8689 16.5673 80.5086 16.3013C80.1484 16.0353 79.8771 15.7028 79.6949 15.3038C79.5126 14.9049 79.3982 14.4698 79.3516 13.9986C79.3049 13.5274 79.2816 13.0714 79.2816 12.6307ZM91.2421 10.6927C91.2421 10.3812 91.3438 10.1133 91.5473 9.88908C91.7507 9.66489 91.9986 9.4825 92.2911 9.3419C92.5835 9.20131 92.9035 9.09681 93.2511 9.02842C93.5986 8.96002 93.9207 8.92582 94.2174 8.92582C94.4463 8.92582 94.7514 8.95622 95.1329 9.01702C95.5143 9.07781 95.8873 9.16901 96.2518 9.2906C96.6162 9.4122 96.932 9.57179 97.199 9.76938C97.466 9.96698 97.5995 10.1988 97.5995 10.4648C97.5995 10.5863 97.5487 10.6946 97.447 10.7896C97.3452 10.8846 97.2393 10.9321 97.1291 10.9321C96.9002 10.9321 96.6925 10.8656 96.5061 10.7326C96.3196 10.5996 96.1267 10.4591 95.9275 10.3109C95.7283 10.1627 95.5101 10.0221 95.2727 9.88908C95.0354 9.75608 94.7684 9.68959 94.4717 9.68959C94.175 9.68959 93.9059 9.77508 93.6643 9.94608C93.4227 10.1171 93.3019 10.3432 93.3019 10.6243C93.3019 11.0879 93.4842 11.542 93.8486 11.9866C94.2131 12.4312 94.6137 12.8986 95.0502 13.3887C95.4867 13.8789 95.8873 14.3938 96.2518 14.9334C96.6162 15.4729 96.7985 16.0695 96.7985 16.7231C96.7985 17.0043 96.7328 17.2418 96.6014 17.4356C96.47 17.6294 96.2963 17.787 96.0801 17.9086C95.864 18.0302 95.6203 18.1233 95.349 18.1879C95.0778 18.2525 94.815 18.2848 94.5607 18.2848C94.281 18.2848 93.9546 18.2259 93.5816 18.1081C93.2087 17.9903 92.8569 17.8345 92.5263 17.6407C92.1957 17.447 91.9181 17.2209 91.6935 16.9625C91.4689 16.7041 91.3565 16.4343 91.3565 16.1531C91.3565 16.0163 91.4646 15.9289 91.6808 15.8909C91.8969 15.8529 92.0559 15.8339 92.1576 15.8339C92.2084 15.8339 92.2868 15.8491 92.3928 15.8795C92.4988 15.9099 92.6026 15.9441 92.7043 15.9821C92.806 16.0201 92.8972 16.0619 92.9777 16.1075C93.0582 16.1531 93.09 16.2025 93.073 16.2557C93.1578 16.3469 93.2871 16.4818 93.4608 16.6604C93.6346 16.839 93.8084 16.9834 93.9822 17.0936C94.1559 17.2038 94.3085 17.2437 94.4399 17.2133C94.5713 17.1829 94.637 17.0119 94.637 16.7003C94.637 16.1075 94.459 15.5622 94.1029 15.0645C93.7469 14.5667 93.3591 14.0803 92.9395 13.6053C92.52 13.1303 92.1321 12.6592 91.7761 12.1918C91.4201 11.7244 91.2421 11.2247 91.2421 10.6927ZM105.156 15.7199C105.156 15.4539 105.258 15.2848 105.462 15.2127C105.665 15.1405 105.885 15.1044 106.123 15.1044C106.538 15.1044 106.89 15.2716 107.178 15.6059C107.466 15.9403 107.74 16.307 107.998 16.706C108.257 17.105 108.513 17.4717 108.767 17.806C109.022 18.1404 109.323 18.3076 109.67 18.3076C109.933 18.3076 110.172 18.2487 110.389 18.1309C110.605 18.0131 110.791 17.8649 110.948 17.6863C111.105 17.5078 111.226 17.3064 111.31 17.0822C111.395 16.858 111.438 16.6357 111.438 16.4153C111.438 15.8377 111.308 15.2412 111.05 14.6256C110.791 14.01 110.461 13.3754 110.058 12.7219C109.655 12.0683 109.229 11.3995 108.78 10.7155C108.331 10.0316 107.907 9.3362 107.509 8.62943C107.11 7.92266 106.78 7.20259 106.517 6.46922C106.254 5.73586 106.123 4.99679 106.123 4.25202C106.123 3.13487 106.496 2.2685 107.242 1.65293C107.988 1.03736 108.971 0.729569 110.192 0.729569C110.607 0.729569 111.026 0.782767 111.45 0.889162C111.874 0.995558 112.264 1.15515 112.62 1.36794C112.976 1.58073 113.266 1.84292 113.491 2.15451C113.716 2.46609 113.828 2.83088 113.828 3.24886C113.828 3.38566 113.716 3.47495 113.491 3.51675C113.266 3.55855 113.103 3.57945 113.002 3.57945C112.849 3.57945 112.684 3.56235 112.506 3.52815C112.328 3.49395 112.213 3.40086 112.162 3.24886C112.111 3.09687 112.039 2.92208 111.946 2.72448C111.853 2.52689 111.736 2.3426 111.597 2.17161C111.457 2.00061 111.291 1.85242 111.101 1.72703C110.91 1.60163 110.7 1.53893 110.471 1.53893C110.09 1.53893 109.766 1.60923 109.499 1.74983C109.232 1.89042 109.015 2.07851 108.85 2.3141C108.685 2.54969 108.562 2.81378 108.481 3.10637C108.401 3.39896 108.361 3.70104 108.361 4.01263C108.361 4.7422 108.5 5.47747 108.78 6.21844C109.06 6.9594 109.407 7.69657 109.823 8.42994C110.238 9.16331 110.69 9.88718 111.177 10.6015C111.664 11.3159 112.116 12.0113 112.531 12.6877C112.946 13.364 113.294 14.0252 113.574 14.6712C113.853 15.3171 113.993 15.9289 113.993 16.5065C113.993 17.0233 113.858 17.4603 113.586 17.8174C113.315 18.1746 112.972 18.4653 112.557 18.6895C112.141 18.9137 111.681 19.0771 111.177 19.1797C110.673 19.2823 110.179 19.3336 109.696 19.3336C109.179 19.3336 108.649 19.2405 108.106 19.0543C107.564 18.8681 107.076 18.6116 106.644 18.2848C106.212 17.958 105.856 17.5762 105.576 17.1392C105.296 16.7022 105.156 16.2291 105.156 15.7199ZM116.596 14.8764V13.8048C116.596 13.4172 116.606 12.8682 116.627 12.1576C116.649 11.447 116.676 10.668 116.71 9.82068C116.744 8.97332 116.791 8.08986 116.85 7.17029C116.909 6.25073 116.977 5.38247 117.053 4.56551C117.13 3.74854 117.221 3.01707 117.327 2.3711C117.433 1.72513 117.553 1.24635 117.689 0.93476C117.774 0.759968 117.914 0.649772 118.109 0.604174C118.304 0.558576 118.494 0.535777 118.681 0.535777C118.978 0.535777 119.238 0.594675 119.463 0.71247C119.687 0.830265 119.8 1.04496 119.8 1.35654L119.571 1.58453C119.274 3.34006 119.084 5.10318 118.999 6.87391C118.914 8.64463 118.855 10.4154 118.821 12.1861C119.033 11.8897 119.272 11.599 119.539 11.314C119.806 11.029 120.103 10.7763 120.429 10.556C120.756 10.3356 121.107 10.1589 121.484 10.0259C121.862 9.89288 122.275 9.82638 122.724 9.82638C123.301 9.82638 123.777 9.98217 124.155 10.2938C124.532 10.6053 124.843 11.01 125.089 11.5078C125.335 12.0056 125.517 12.5623 125.636 13.1778C125.755 13.7934 125.846 14.409 125.909 15.0246C125.973 15.6401 126.017 16.2234 126.043 16.7744C126.068 17.3254 126.106 17.7832 126.157 18.148C125.996 18.3456 125.759 18.4444 125.445 18.4444H125.407C125.271 18.4444 125.123 18.4292 124.962 18.3988C124.801 18.3684 124.695 18.2924 124.644 18.1708L124.67 18.1936C124.551 17.958 124.47 17.618 124.428 17.1734C124.386 16.7288 124.352 16.2386 124.326 15.7028C124.301 15.1671 124.256 14.618 124.193 14.0556C124.129 13.4932 124.034 12.984 123.907 12.5281C123.78 12.0721 123.593 11.6959 123.347 11.3995C123.101 11.1031 122.771 10.9473 122.355 10.9321H122.279C121.779 10.9321 121.359 11.0689 121.02 11.3425C120.664 11.6313 120.376 12.0113 120.156 12.4825C119.935 12.9536 119.766 13.478 119.647 14.0556C119.529 14.6332 119.437 15.1899 119.374 15.7256C119.31 16.2614 119.262 16.7478 119.228 17.1848C119.194 17.6217 119.151 17.9428 119.1 18.148C119.05 18.3228 118.899 18.4387 118.649 18.4957C118.399 18.5527 118.185 18.5812 118.007 18.5812C117.592 18.5812 117.253 18.4748 116.99 18.262C116.795 17.844 116.68 17.3235 116.646 16.7003C116.613 16.0771 116.596 15.4691 116.596 14.8764ZM128.505 13.8504C128.505 13.4172 128.567 12.9707 128.69 12.511C128.813 12.0512 129.007 11.637 129.274 11.2684C129.542 10.8998 129.878 10.5996 130.285 10.3679C130.692 10.1361 131.184 10.0202 131.76 10.0202C132.193 10.0202 132.648 10.0867 133.127 10.2197C133.606 10.3527 134.045 10.5427 134.443 10.7896C134.841 11.0366 135.166 11.3387 135.416 11.6959C135.666 12.0531 135.791 12.4521 135.791 12.8929C135.791 13.4248 135.683 13.9302 135.467 14.409C135.25 14.8878 134.947 15.3152 134.558 15.6914C134.168 16.0676 133.712 16.364 133.191 16.5806C132.669 16.7972 132.104 16.9055 131.493 16.9055C130.993 16.9055 130.557 16.8238 130.184 16.6604C129.811 16.497 129.499 16.2785 129.249 16.0049C128.999 15.7313 128.813 15.4083 128.69 15.036C128.567 14.6636 128.505 14.2684 128.505 13.8504ZM130.374 13.8276C130.374 13.9644 130.398 14.1658 130.444 14.4318C130.491 14.6978 130.561 14.9581 130.654 15.2127C130.747 15.4672 130.868 15.6876 131.016 15.8738C131.165 16.06 131.345 16.1455 131.557 16.1303C132.006 16.0847 132.377 15.9536 132.669 15.737C132.962 15.5204 133.199 15.2564 133.381 14.9448C133.564 14.6332 133.691 14.295 133.763 13.9302C133.835 13.5654 133.871 13.2196 133.871 12.8929C133.871 12.4749 133.78 12.1253 133.598 11.8441C133.415 11.5629 133.116 11.3349 132.701 11.1601C132.701 11.1753 132.71 11.1829 132.727 11.1829C132.744 11.1829 132.752 11.1753 132.752 11.1601L132.434 11.0917C132.349 11.0613 132.246 11.0271 132.123 10.9891C132 10.9511 131.879 10.8675 131.76 10.7383C131.43 10.8447 131.173 10.9815 130.991 11.1487C130.809 11.3159 130.671 11.5192 130.578 11.7586C130.485 11.998 130.427 12.2849 130.406 12.6193C130.385 12.9536 130.374 13.3564 130.374 13.8276ZM138.139 9.5072C138.139 9.15001 138.217 8.88592 138.374 8.71493C138.531 8.54394 138.817 8.45844 139.232 8.45844C139.478 8.45844 139.709 8.50404 139.925 8.59523C140.141 8.68643 140.25 8.88022 140.25 9.17661C140.283 9.60979 140.3 10.0639 140.3 10.5389C140.3 11.0138 140.347 11.4641 140.44 11.8897C140.652 11.5781 140.892 11.2665 141.159 10.9549C141.426 10.6433 141.72 10.366 142.042 10.1228C142.364 9.87958 142.716 9.68389 143.098 9.53569C143.479 9.3875 143.894 9.3134 144.344 9.3134C144.954 9.3134 145.471 9.4274 145.895 9.65539C146.319 9.88338 146.668 10.1798 146.944 10.5446C147.219 10.9093 147.419 11.3216 147.542 11.7814C147.664 12.2412 147.726 12.7029 147.726 13.1664C147.726 13.8808 147.605 14.4641 147.364 14.9163C147.122 15.3684 146.802 15.7237 146.404 15.9821C146.005 16.2405 145.554 16.4153 145.049 16.5065C144.545 16.5977 144.039 16.6433 143.53 16.6433C143.081 16.6433 142.661 16.5654 142.271 16.4096C141.881 16.2538 141.61 15.9593 141.457 15.5261C141.457 15.4045 141.557 15.3285 141.756 15.2981C141.955 15.2678 142.097 15.2526 142.182 15.2526C142.462 15.2526 142.67 15.3209 142.805 15.4577C142.907 15.5641 143.019 15.6724 143.142 15.7826C143.265 15.8928 143.394 15.9479 143.53 15.9479C143.793 15.9479 144.068 15.8814 144.356 15.7484C144.645 15.6154 144.91 15.4406 145.151 15.2241C145.393 15.0075 145.596 14.751 145.761 14.4546C145.927 14.1582 146.009 13.8542 146.009 13.5426C146.009 13.2766 145.984 12.946 145.933 12.5509C145.882 12.1557 145.795 11.7757 145.672 11.4109C145.55 11.0461 145.38 10.7307 145.164 10.4648C144.948 10.1988 144.674 10.0658 144.344 10.0658C143.844 10.0658 143.392 10.271 142.99 10.6813C142.587 11.0917 142.252 11.5857 141.985 12.1633C141.718 12.7409 141.51 13.3412 141.362 13.9644C141.214 14.5876 141.14 15.1082 141.14 15.5261C141.14 15.9441 141.169 16.4723 141.229 17.1107C141.288 17.749 141.349 18.4121 141.413 19.0999C141.477 19.7877 141.538 20.4507 141.597 21.0891C141.657 21.7275 141.686 22.2557 141.686 22.6736C141.686 22.78 141.638 22.8655 141.54 22.9301C141.443 22.9947 141.326 23.046 141.19 23.084C141.055 23.122 140.917 23.1448 140.777 23.1524C140.637 23.16 140.534 23.1638 140.466 23.1638C140.237 23.1638 139.997 23.141 139.747 23.0954C139.497 23.0498 139.326 22.9092 139.232 22.6736C139.114 22.3013 139.004 21.7712 138.902 21.0834C138.8 20.3956 138.709 19.6357 138.628 18.8035C138.548 17.9713 138.478 17.0974 138.419 16.1816C138.359 15.2659 138.308 14.3824 138.266 13.5312C138.224 12.6801 138.192 11.9011 138.171 11.1943C138.149 10.4876 138.139 9.92518 138.139 9.5072Z" fill="black"/>
</svg>
